<?xml version="1.0" encoding="UTF-8"?>
<svg version="1.1" viewBox="0 0 2048 2048" width="4000" height="4000" xmlns="http://www.w3.org/2000/svg">
<path transform="translate(0)" d="m0 0h2048v2048h-2048z" fill="#CECECE"/>
<path transform="translate(992,21)" d="m0 0 8 1 19 1 9-1h7l6 3 3 3 14 4v2l5 1 7 4h12l2 4 6 4 4 1 5 8 7 2 10 7 11 3 11 1 11 6 13 8h8l10-1 4-1 3 3 4 8v7l5 2h6l3-2 10 2 14 5 1 3 4 1 6 9 11 8 1 2 4 2 2 7 3 3 4 9 2 7-2 7 6 7 7 4 8 7 8 11 3 3 2 7 3 5v5l4 4 3 5 2 5 2 2 1 11 3 6 15 15-2 1 3 13v13l-2 10-8 9-10 5-3 8-3 6-3 1-2 4-3 4-1 22 1 4 1 25 2 12 2 5-1 2v5l-1 5 4 10-1 5-2 2-1 13 2 3v15l-2 3h-2v20l-4 3-3 17-1 9-9 7-8 14v13l6-2 12-11 8-7 10-10 9-5h7l2 4 3 1 4 8 3 12v29l-3 1-11-2-7-1-1 4-3 1-1 2-3-4-2-8-8 1-14 7-2 6-1 1 1 9 4 11 5 11 1 5-2 3h-2v2l-3 2-9 1-9-3v-15l1-10v-36l-3-18-5-18-6-12-6-5-4-1-4 2-1 5-4 8v2l-8 6-3 5-4 4h-4l-1 2-4 2-1 3h-7l-3 2-6 15-7 9-6 6h-2v2h2l2 4v8l-2 5-3 3h-17v-2l-2 1h-38l-25 1-11 3h-3v2h-3l-1 7h2l2 3v3h2v3l4 1 1 3h5l2 4v4h2v3h2v3h2l5 5h2v3l5 1-1 3h3l5 7 5 3 1 4h2v-2h6l3-1 4 3 1 4 6-1 1 5 10-2 6 1 4-1 4 1 2-4 1 1 2-2v2l5-2h3 3l1-2 4-1v3h3l2-3h5l5-1v2l8-3 2 4h4l4-1 2-5h3v-3l3-1 1 3-2 3v6 4l1 2-1 2h-2l-1 10-6 8 1 13 1 9v3h2l3 6-1 5 2 4-1 8 1 3 2 12 1 10v53l-2 24 4 14 1 7 2 3v11l1 1v5l-5 4-3 5h-2l-2 6-5 1-3 5h-2l-2 4-7 1-5 2-9 3h-2l-1 3h-9l-5 4-7 2h-10l-4 1-7-3-1 3h-2l-2 4-1-2-9 2-4 4 5-1 1 1-1 8-4 4-7 2-3 3v10l-1 2-4 2-1 2 5 3v3l-8 3-3 1v2l-11 4h-7v7l-1 4h2l2 3 9 2 5 1 6-1v-2l10-2 7-1 3-1 4-1 5 2 9-2 3-2h3v-2l7-4 10-4 13-8 10-4 5-3 4-1 1-3 5-1v-2l8-6 1-2h3l2-4 8-9 3-5h2l2-5 4-9 4-2 2 3-1 9-5 10-7 11-5 5-10 9-18 13-11 7-19 9-9 5-8 4-7 3-11 3-2 3h-13v2l-6 2-2 2-13 3-12 5-5 3-20 8-5 1 2 7-2 3-6 3-1 4 12-3 4 6-1 5-2 1v6l11-2 4 2 1 3h5l2 3h3v2l5-2 7 1 5 2-2 4-10 7-1-2-3 1v-5l-2 1 1 7-3 1-9-3-10-1-8 5h-2v2l-14 6-15 4-5 2h-3v2l-8 3-10 2-5 2-8 1-8 6-7 2v2l-7 1-1 2h-3v2l-10 2-2 4-10 4-1 1-7 1-5 3-6 3h-2l-1 3h-3l-2 5-5 4-1 2h-2l-2 4h-3l-2 5-1 3-5 3-10 2h-19l-16-2-14-5-16-10-10-9-5-4-14-16-6-7v-2h-2l-2-6h-2l-3-3-6-1-10 1v2l-6 4-3 1-2 4-5-1-5-5v-4h-3v-2h-2l-5-8-3-3v-2l-5-1-4 4-1 2h-2l-2-2-7-4-4-8-1-3h-2l-3-6-2-18 1-6-11 1-14 5h-11v2l-13 3h-4v2l-18 2-7 1-5-2-2-10v-22l1-17v-12l2-4 1-17 2-8v-8l1-2 2-23-2-1 1-3 3-17 4-11 1-3 1-12 1-2h2l1-11 3-4 1-15 6-15 2-10 7-15 2-7 4-5 2-8 7-16 7-8 4-8 3-3h2l1-4 7-8h2l2-6 2-4-2-9-7-14-13-36-2-9-1-3-12-2-9-5-5-6-4-9-3-17-7-21-8-31-4-22-1-13h2l1-10v-12l-2-5-8 1-1 2-3-5v-14l6-26 5-16 6-8 5-4 2-1h9l11 3 14 9 4-1v-6l-7-16-1-18-2-9-1-2v-9l1-2 1-16-1-4 1-13 1-9-1-5 3-10 1-13 4-10 2-9 3-8 2-15v-13l-1-2-1-17 4-18 1-23 3-10 2-14 4-6 2-13 1-8v-4h-2l-1-4 3-4 6-3 7-6 3-9 2-11 6-7 1-9 5-8 2-2-1-4 4-7 3-3 3-1 2-3 5-2-1-3 3-2 3 1 1-4 15-3 4-3 16-2 6-2h6l2 1 14 1 1-2 9 1 1-2 3-1 1-2h3v-3l5-3 4 1-1-5 9-2 3-3 9-4 11-7 5-3 3-2 21-1 12 1 3-3 10 2h9l2-1 7 1 5-1 13-1 3 2 23 1 5-3z" fill="#787878"/>
<path transform="translate(992,21)" d="m0 0 8 1 19 1 9-1h7l6 3 3 3 14 4v2l5 1 7 4h12l2 4 6 4 4 1 5 8 7 2 10 7 11 3 11 1 11 6 13 8h8l10-1 4-1 3 3 4 8v7l5 2h6l3-2 10 2 14 5 1 3 4 1 6 9 11 8 1 2 4 2 2 7 3 3 4 9 2 7-2 7 6 7 7 4 8 7 8 11 3 3 2 7 3 5v5l4 4 3 5 2 5 2 2 1 11 3 6 15 15-2 1 3 13v13l-2 10-8 9-10 5-3 8-3 6-3 1-2 4-3 4-1 22 1 4 1 25 2 12 2 5-1 2v5l-1 5 4 10-1 5-2 2-1 13 2 3v15l-2 3h-2v20l-4 3-3 17-1 9-9 7-8 14v13l6-2 12-11 8-7 10-10 9-5h7l2 4 3 1 4 8 3 12v29l-3 1-11-2-7-1-1 4-3 1-1 2-3-4-2-8-8 1-14 7-2 6-1 1 1 9 4 11 5 11 1 5-2 3h-2v2l-3 2-9 1-9-3v-15l1-10v-36l-3-18-5-18-6-12-6-5-4-1-4 2-1 5-4 8v2l-8 6-3 5-4 4h-4l-1 2-4 2-1 3h-7l-3 2-6 15-7 9-6 6-6 1v2l-18 5 18 3v4l-2 2-3 1-66 2-13 1-12 2-8 5v2h-2l1 7h-2v2l5 2v2l-6-2 1 3 8 3v2l4 1 2 2v3h3l2 9 5 5 1 4 7 5-1 3-1 2 4 1 5 3 1 2-7 1 4 2v2h7l1 4 2 4-1 5-7-2-2-1v-3l-5-2h-2l1-5h-3l-3-5-4-5h-3l-9-17-7-10-4-7v-4h-2v-2l-4-2v-2l-4 1-5-3-4-1-9 2-13 13-9 5-12 1v-2h-6v-2h-9l-9-3h-5l-2 2-4 1-1 3-5 5-5 3-7 1-4 1-3-1-5 1-2-1-7-2h-3l-1-2-9-2v-3l-7 1h-2v-2l-4-1-7 2-18 1-8-3-2-5-4-2-2-9-3-7-5-3-6-1-1-2-5-2-2-4-3-1v-2h-3l-1-2-8-3-10-3-14-3-16-2-15-1-23-1-21 3h-16l-1-7 1-12 4-2 1-2h2v-3l2 1-1 2h2l3 3 7 1 8 3h14l-19-8-9-7-6-8-5-12-4-22-3-22-3-31-3 2-2 7 1 7 1 3 3-1 2 6-1 7-2 6h-2l1 3-2 7-2 6-7 3-3-2v-2l-3-1v-9l-1-4 1-12 1-9-7 2v2h-2l-2 5-8 16-3 12-5 22-1 18v26l-3 3-3-2-3-5v-3h-2l1-4h-2l-1-6-1-3 2-8v-12l-9 1-3-1-2-6v-6h-2v-4h-2l-6-10-1-4-2-7 3-16 5-13 5-6 4-1 7 4 5 7 1 3 7 6 4-1 2-2-2-12 5 1 8 6h4l1-10 3-4 7-3 3-5 4-6v-11l2-16 9-3 28-5 2-1-3-2v-2h4l-3-5 8-4 2-3h-2l-1-5h3l2-4 5-1-4-2 2-3 7-2v-2l10-2 11-1 2-1-1-3 6-1 14-1 13 2 2 4 8-1 1 2 2-1 1 1 2-1v-2l9-2v2h2l-1-7h2v2l12 2 2-1 1 2 5-1 1 3h4v2l5 1-1-4 3 1 1 1h2v2h3l1-2 3 4v3h2l1-3 5 9-1 6 5-3h6l3 3 4-2 1 6 4-1 2 1 1 3 6 2-1 3-3-1v3h2l2 2v3l4 2-3 2 3 6v2h7v6l3 1h-7l-50-11-23-4h-6l26 4 55 12 30 3h28l22-2 33-4 16-1h41l28 2 31 4 15 3h3l-4-2 10 1 13 3 12 2 15 4 3 3v26l4 3v-24l5 5 7 10 6 5v-2h2l1-9v-18l-3-11-3-9v-6l-2-1v-5l-4-2-3-5-3-7-1-4-7-11-1-4-3-2-5-12-4-7-1-7-5-6-1-3-2-1-3-6v-5l-3-1-3-9h-2l-1-3-2-1v-3h-3v-3l-3-1-3-3-7-3v2l-5 1-2-1-1 3h-1l-2-7-3-2v-2l-4-2-3-2v-2l-3-1-4-1-1-4-3-5v-2h-2l-4-6-3-3-5-10-5-5-1-3-4-2-3-3v-2l-4-1-1-2-4-1v-2l-3 1v-4l-4-2-14-9h-2l-3 2-1-6-1-5-2-1-1 3-2-1h-5l-5 5-2-1-1 4-1 3-4 1-2 3h-2l-1 3-4-1-1 2-3-4 7-1 2-5 1-2h2v-2h-3v-6-1l-3-4-2-7-1 1h-5l2 3-2 2 3 3-20-1-2-1v2l5-1 5 2-3 3h-4l2 1 4 7v3l-4-3v-2h-9l-1-4v-2l-2-7-1-4h-4l-2-4-3-3-1-4-3-4-3 1v5l-1-2-12 1-2-2h-3l-7-2v2h-2l1 3h-2l1 2h3v4l-5-1-2-3-3-2-2-3-1-3v-3l-5-2-5-3v-2l-10 1-5 5-2-5-1-3-2 2-2-1-11 2-8 3-13 4-15 3-2-1-1 2h-5l-8 3-12 4v1l-5 1-4 8-3-1-1 6h-2l-2 7-4 4-3 1-1 2-5 2-4 2h-3v2l-7 3-1 2-9 3-8 1-4 1h-4l-5 3v-2l-5-1-9 9h-3v2l-6 4h-2v2l-2 1-2 5-3 2-3 6-2 6v9l-5 10v8l-1 6-3-1 1 4-2 4-3 3h-3l-2 6-3 6-2 3h-2l-1 5-4 4h-2l-2 7 1 2-3 3-4 18-3 8-4 20-3 27-4 8-7 9-2 6-3-1-3-7-1-24-2-3v-10l1-2v-32l2-6-1-10 3-11 1-14 3-8 1-9 3-11 1-10v-13l-1-2-1-17 4-18 1-23 3-10 2-14 4-6 2-13 1-8v-4h-2l-1-4 3-4 6-3 7-6 3-9 2-11 6-7 1-9 5-8 2-2-1-4 4-7 3-3 3-1 2-3 5-2-1-3 3-2 3 1 1-4 15-3 4-3 16-2 6-2h6l2 1 14 1 1-2 9 1 1-2 3-1 1-2h3v-3l5-3 4 1-1-5 9-2 3-3 9-4 11-7 5-3 3-2 21-1 12 1 3-3 10 2h9l2-1 7 1 5-1 13-1 3 2 23 1 5-3z" fill="#353535"/>
<path transform="translate(685,600)" d="m0 0 4 3h6l3 3 2-1 2 4 3 1v4h2v-3h3l1 6-3 4 6 1 4 1 2 4h2l3 4v2l7 1 8 5v2h2v2h4v-3l4 1v3l8 4 3 5 1 4 1 1v-3l5 1 3 7v3l2 1-4 1v-2h-2l2 4 5 4v2l-6 2-3 6v3l-2 8 4 7v3h-2l1 10 2 1 1 5 4 4v4l2 1 1 5 7 2v2l3 1 3 5 3 4 1 7h2l3 7 5 4v4l4 3 1 6 4 1v3l4 1 2 5v7l5 3 6 2 3 5 7 4 3 4v3h5l3 3h3l4 4 10-1 5 3 1 4h10l1 2 3 1 1-2v3l4 1 3-1 6 3 1-2v3l5 2 4-1 2 4 3-2 8 5 2 3 5-2 2 1v2h7v-2l4 2 2 3 5 2v3h2l-1-4 1-1h8l1-2h2l4 7h3l1 2 7-2h2l1 3 1-4h2v-2h2l1 3 7-1v2l5-2h4l1 6h2v-2l4 1 2 3 1-2 4 6h-3l1 4h3l1 3 3 2 1-2 3 1v-4l5 1 4-3 5 1 3-5 7-2 4-4 4-3h2l1-3 7-3 2-3 6 5-2 6h-3v4l-5 2-2-1v3l-5 4-1 2-2-1-5 5h-3v3l-3 3h-4l1 3-8 3-1 2h2v2l-5 1-1 4-6 2-3 2-2-2-2-1-1 6-4 3h-6l-8 4-2 3h-3v2l-3 1v-2l-7 2-2-2-2 1-3-1 1 3-4 2h-6l1 7 6 2 8-1 16 1 6-2h4l1-2 2 1h5l4-2 9-1 1-2 7-1 3-1h7v-2l4-2 9-1 1-3h3l5-1 7-3 3-1h5l5-3h3v-2l6-4h6l5-5 13-4 6-4 1-2h5v-2h3l1-3h2l1-2 7-3v2l8-2 6 2v2l3 1-2 4-3 3-2 4-8 5-4 6-7 6-4 4h-3l-1 6-3 3-4 2 1 6-15 9-8 2v2l-11 6-6 12h-2v3h-3l-1 3h-2v2l-8 7 1 3h-3v2h-2v3h-4v2l-5 1-1 5-8 4h-2l-1 3-3 2-8 1v2h-2l-3 11-1 7-3 1-2 4-2 3h-3v6l-6 3-7 7-2 7-6 5-1 5 5 2 2 2-2 2v8l-1 3h-2l-1 4-2 1-2 6-5 2v7l-4 1 1 7-5 5-10 3-5 2-11 3-7 2h-2v2l-9 2-3 1-1 2-7 4-3 2-15 2h-3v2h-2v2l-4 3h-3l-2 4-2 3-10 5h-19l-5-1h-8l-2 1h-7l-4 1-9-6-1-3-4-2-13-13-8-11-8-13-8-16-7-12-6-14-3-8-4-6-2-9 1-2h2l-1-3 2-3 1-4 4-12 10-19h2l1-4h2l2-5 6-7h2l1-10-6 1-6 2-2 4h-2l-2 4-4 3h-2l-2 4-6 5-1 2h-3l-1 3-9 7-16 11h-5v2l-9 2h-4l-1 3-8 5-6 4-5-1-1-6v-9l2-16 3-12 3-6-1-12 2-5v-8h2l-1-3 2-14 1-2h2v-20l1-7 1-11 2-3v-11l2-10 1-13 2-16 3-9v-7l2-4-2-1h2l-1-8h2l3-12 5-13 5 2 5 6 2 5 4 2 1 4 4 1 2 5 1 3h2l2 5 3 2 3 5v2h2l5 6v2h2v2h2v2h2l1 4 4 2 4 5 3 1v2h2l3 3 1 4 4 1v2h4l-1-5h-2l-10-10-2-4v-3l-4-1-5-5-1-3-4-2-3-5-2-6-2-1v-2l-4-2-2-4h-3l-1-3-2-1v-2l-2-1-5-10-4-10-3-1v-3l-2-1 1-2-4-1-4-9-2-1-2-3-3-3-6-14-1-4-3-1-2-5-2-1-2-6h-2l-2-6-2-5-5-8-2-9-6-9v-3l-3-1-4-14v-13l-2-2v-3h2l-1-3-2-1-1-10-3-7 4-1 1-7 1-6-2-5v-21l-1-3z" fill="#353535"/>
<path transform="translate(917,181)" d="m0 0h8l5 3-1 6h-4l1 1h5l1-5 4-2 1 3 2-2h2l4-2 4 4-1 2 2 1v2l3 1h-3l6 2 2-3 3 1-2 5 3-1 1 4-2 2 9 2 4 7v3h7l8 1 7-1-3 2 2 2h3l-1 2 5 1 3 2-3 1h5l3-1v2l7-1 1 1 1-1-2-1 1-3 3 1v2l6 1-2-6h-2v-2l4 1 3 1-4-5v-3l-3-1 2-1 5-1-5-2h-4v-2l21 1-3-3v-3l1-2 5 1 1-3 4 10 3-2-1 9-1 3h3v2l-2 2-2 5-7 2 2 2 5-1 6-7 3 1 1-4 1-3 4-1 4-4h5l1 1 1-2 3 1 2 10 3-3 9 6 10 7 1 3h2l2 2 3 1v2l4 1 5 6 4 4 7 8 3 7 6 7v2h2l5 9-1 2 4-1 3 3v2l4 2 6 5 2 2 1 5 1-2h7v-2l4 1 6 3 3 3v3h3v3l3 1v3h2l4 9 3 1 1 7 1 4 3 1 4 7 3 4v5l5 9 4 10 3 2 3 7 6 9 1 7 3 5 6 7-1 3 3 1v10l2 1 1 6 3 9v18l-2 9h-2v2l-4-2-7-8-6-9v16l-1 7-4-2-1-1v-28l-17-4-11-3-1-5-4-1-5-3 1-2 9 2 3 1-16-8v-1l7 1v-2l-9-2-6-4-5-5-3-2v-2l-11-3-2 1-8-3v-2h-6l-5-2v-2l-5-1h-3l-10 1 1-4-7 1-5-1-2-3h-12l-8-1-2 2h-7v-2h-2v2l-4 1v-3l-5 2-4-2-3-1v-1h-5-2l-4 1-2-1-1 3h-3l-1-2-8 4-15 2h-3l-4-1h-2l-1 3h-3l-2 1v2l-5 4h-4-4v2h-2v5h-2v3l-2 1-1 5h2v3l3 1 3 3-1 4-2-1v2h2v2l2 1-3 1h-33l-1-5h2v-2h3v-2h3l-3-5-2-1v-5l3-1-4-6v-5l-4-2-3-2-2 1-4-4v-3h-2l-1 2-8-5v-3h-9l-12-6v-3l-7 1v-2l-3 1-5-1-6-1v-6l-2-1 1 3h-5l-2-4h-6l-5-1-4 1-16-4v-2l-6 1-2-1-8 1-1-1-14 1-2 1v-2l-2 1h-13l2-1v-2h-9-3l-7 1-1-2 1-1-12 1-2-6 1-6 3-3 3-1 2-6 7-1 3-2 5-3 8-1 4-3h2l1-10 1-2h4v-3l-3-1 1-6-1-2-1-12h-2l-1-5h-4l1-7 4-10v-5l4-1 2-4 2-7 4-1 3-3h2v-2l5-5 3-5 3-4 5-2 5-5 1-2h2l1-5h3v-2l6-2 1-3 8-4 4-4 6-2 4 1v-3l10-2 6-2 7-2h5v-2z" fill="#CECECE"/>
<path transform="translate(932,171)" d="m0 0 2 4 1 3 5-4h10l2 2 8 5 1 5h2v4l5 1v4l4-1-3-2 1-5h2v-2h6l3 2h3v2l10-2 2 1 1-3 4-2 3 5 1 5 4 3v3h2l1-2 3 3 1 7 2 5-1 4 4-1 5 1-3 1v2h2l1 2 3 2h-2l1 3-5-1-2-1v-2h-3l-1 2 3 1-1 3-3-1 1-2-7 1v-2l-3 2h-5l-1-4h-6l3-3-4 1-3-4-5 1-12-2-3-7-3-2-4-2-3-1 1-4-3-1 1-5h-2l-3 3v-2l-5 1v-5l-4-2 2-1-3-3-3 2h-3l-2 2-2-3-3 3-1 3h-5l-1 2v-3h4v-6h-2v-2h-10l-4 1v2l-12 3h-5l-1 2-10 1v3l-8 1-4 1-2 4-6 3h-2l-1 4-6 1v2l-3 3-1 2h-2l-2 5-5 4-5 2v3l-4 4-4 5h-2v2l-4 1-1 3h-4v6l-4 5-4 1 1 6-3 5-2 10 4 1v5h2l2 6v7l1 4-1 3 2 1v3h-4l-1 10-5 5-5 2h-6l-6 4-4 2-4-1-1 6-6 4-1 8 2 3 12-1v3l6-1h3l9 1v2h13l1 1v-1l15-1 3 1 7-1 5 1h2v2l18 3 6-1 6 2 1-2 2 3v3l4-1v-2l3 1-1 6h10l4 1v2l7-1v3l5 1 5 3 5 1 6 1v3l5 2 3 2 3-1 2 4 3 2h3l5 4 2 7 2 4-3 3 2 1h-2v2l3 1 2 5h-3v2h-3v2h-2l1 4h33l1-3h-2v-2h2l-1-3-4-4v-3h-2v-5l3-1v-5h2v-3h2l-1-3h5l2-1v2l5-4h2l2-5 3 1 3-3 4 1h3l15-2 3-2h4l1-2 4 2 1-2h5l4-2 4 2 1-2v3l5 1h3l5-1-2 4 4-1v-2h2v2l7-1 1-2 9 1h12l2 4h12l-1 4 10-2h3l5 2v2l5 1 6 1v2l8 2 2-1 11 4v2l4 2 7 6 3 2 9 3v2h-6l14 6 3 4-5-2-9-2 1 1 4 3 4 1 2 4 3 2-9-1-16-3 4 2-13-1-15-3-36-4-17-1h-41l-27 2-30 4-14 1h-28l-30-3-55-12-26-4-2-2h8l32 6 41 9h4v-6h-7l-3-5v-3l-2-1 4-1-5-4v-3l-3 1 1-4h3v-2l-6-2v-3l-7 1-1-5 1-2-5 3v-3h-8l-2 2h-3v-7l-4-7-1 2h-2l-3-6-4 1-1 1-2-1-2-3 1 4-6-2-5-2v-3l-2 2-4-1h-4l-10-3v-2h-2l2 5-1 2h-2v-2h-2l-1 2h-6l-1 4-6-1-2-1h-5l-2-3-14-2-19 1v2h5l-6 3-21 2v2l3 1-10 1-1 3 4 2-4 2-3 1-3 3v4h2l-2 4-7 4 2 4h-4v2l4 2-3 2-33 6-3 1-2 16v11l-6 8-3 3-8 1-3-6 1-5 7-9 4-8 3-27 2-12 5-16 4-18 2-5 3-7h2l2-4h2l-1-3h2v-2h2l2-4 3-7 2-4h3l1-3 2-1 1-7h2l1-2-2-1h2v-10l5-10v-9l2-6 5-8h2l2-6h2v-2l6-4h2v-2l4-2 8-8 5 2h2l4-3 4 1 8-2 12-2 1-3 7-2v-2l6-2 2-2h4l1-3 5-3 4-8h2l1-6 4-2v-2h2l1-4 13-5 11-3 1-1h5l5-1 9-2 4-1 13-4 8-3 12-2h2z" fill="#797979"/>
<path transform="translate(935,693)" d="m0 0 7 1 1 1h26l21 3 24 8 4 1 1 2h4v2l3-1v3l23 1h9l5 2v2h3v2l4 2 1 5 3 1-1 3h2v4h2v4l1 9 1 6-3 5 2 2v6l3 1h-2l2 4 4 2 2 5h2v11l2 5-1 7-2 3h-2v2l-5 4-2 5-8 7-3 3-1 3-5 2-2-1-1 3-3 1-2-1-2 5-9 3-6-2-2 5h-2v-2l-9 1-3 1-3-5-4 4-3-2-1-3-3 2h-9v-2l-6-1v-2l-4 1v3l2 1-3 1v2l-5-1v-2h-3l-1 2-5-1-2 1v-2l-4-1-3-1v3l-5-2v2h-8l-3-4-3-1-2-3-6 3-4-2v-2l-5 4-1-3-3 2 1 2-4-1v-7l-2-1v3h2v2h-3v2l-8-1-2-4v-4l-3 2-4-1 1-2-4-3-2 4-4-2-3-3h-3l-1 2-3-4-3-1v-2l-4-1-3-2v-2h-2l-1-2-6-1-2-3v-5l-6-1v-5l-3-1 1-1-2-3-2-6-6-1v-3h3v-2l4-2-3-5v-2l-2-1 6-2 1-3 2-2 1-2 7-1 1 3h2l2 2 2-4 4 1 3 2 1-2 4 5v2h7 2 3v2l5-1 2 1 2-2v2l13 1h16l11-1 2-1 6 2 4-1h9l11 2 5-1h13v-2h2l2-6 2-2-1-4 6-3 5-5h2v-2l4-2h2l3-3 6-3 4-5 1-2-7-1-1-4-5-1-6-1-1-4-2-2v5h-2v2h-2v-2l-2 1-1 5-11 2h-5l-3 1h-10l-10-1h-18v-2l-11-1-10-4-2-7-3 2-1-2-4-2-1-3-6-1-2 1-2-5-2-3v-3l7-4 7-2z" fill="#CECECE"/>
<path transform="translate(1e3 446)" d="m0 0 4 1v4l1 2h3v3l5 3v3l2 1 2 4 1 6 4-1v-2h3l-1 4 8 1-1 3 4 1v2h2l3 4 1 3 6 5-2-5 4-1 1 8h2l4 5 9 2 2 1v2h5v2l7 1 9 3 7 2h8l9 1 18 1 4-1h7l14-2v-4h2l1-3 6-2 7 2 3 3v3h-2l-1 5-2 4 2 1v4l-3-1v2l3 2v2l4 3v2h-2l3 6 4-1 2 2h5l2-1v5l1 2-7 12-7 6-1 3-12 5-18 4-17 2h-32l-26-3-21-5-9-4-4-4-9-7-7-8-8-14-6-14 1-3 7 15-3-11-8-27-2-10h2l1 2 4-6-6-7v-3l-3-1v-2h-4v-12l3-8z" fill="#CECECE"/>
<path transform="translate(732,478)" d="m0 0 2 1h7l9 3h14l6 3 8 1 5 5h3v2l9-1 2 2 4 1 2 1 5-1 5 2 2-1 5 2 6-2h7l5 1 3 1v-3h3v2l7-1 1-2 3 1h3l5-4 1-5h8l-1 2h6l2-4 2 4v7l-2 8 6-2 6 2v-4l2 1-1 2 5-2h4l1-3 4 2v-2h2v3h2l1 4-7 17-3 9-8 11-7 8-11 7-10 4-12 2-12 1h-25l-21-2-23-4-19-5-8-3-8-2-6-7-6-15-4-20-1-18h2l3 14 2 14 5 15 6 8 1 3 4 1-1-6-3-9 2-8h-2l1-10-5-1-1-4-4-1-3-11 1-7 1-3h2z" fill="#CECECE"/>
<path transform="translate(1082,430)" d="m0 0h14l33 3 32 4 20 6 10 6v2h2l5 8 1 10h-2l1 4v16l-4 8h-2l2 6h-2l1 11h2l3-15 1-15h2l-1 22-2 15-4 17-3 8-3 1v-5l-1 1h-5l-2-2-5 1-2-4v-3l1-1-1-3-3-1v-2l-3-2 1-3 2 1 1 1v-4l-3-1 2-4 2-5h2v-3l-3-1v-2l-8-1-5 2-1 2h-2l1 5-17 2h-7l-4 1-19-1-12-1-6-1-11-3-8-3v-2h-5v-2l-11-2-4-4v-2h-2l-1-8h-2l-1 3 2 3-2 2-4-6h-2l-2-5-1-3-6-2-1-3-6-2 1-4h-3v2l-4 1-2-3 1-5-3-1-2-5-5-3v-2l-3-1-2-4h2l-1-2-4 1-3 8-1 12h4l3 3 3 6h2v3l2 1-4 7-2-1v-2h-2l-1 2-3-8-2 3-2-13v-15l3-7 4-5 12-5 19-4 4 1-18 5v3h-2v2l7 2 3 5h-2l2 9h3v2h3v5l6 5v2l11-3-4 7 9-2 26 1 29 6 20 1 2 3h6l2 2 3-1 13 5 6 2 11 4h14l1-3-2-2-1-3 1-2h-2l-1-6-4-2-4-4-6-2-1-3-4-2-5-2-6-3-9-4-2 1-7-1-12-1-13-3-13-2h-21l-4-2 3-1-3-2-4-1-7 2-10-1-1 2-2-6-5-5-1-2h3v-2l4-1 1-2 6-2z" fill="#787878"/>
<path transform="translate(1041,614)" d="m0 0 8 1v2l5 2 6 3v2l5 2 7 10 2 1 3 7 5 4-1 4h3l-1 3 2 1 5 10-1 9-3 1-1 3h-2v2l-4-2-5-5-1-2h-2l-3-5h-4v2h-2l-1 4h-2l1-5-1-3h-2v5l-7 6v3l-2 7v3h-5v-2l-8-1-7-3-6-4-10-4-13-6-9-3h-15l-2-1-12 2h-16l-8-3-7-2h-22l-10 3-7 2-9 3-8 2-7 1-4-1-3 1-3-8v-3l-4 2-1-3-8 1-5-1-1 2-1-2-7-2-1 5-6-1-4-4v-2l-2-1 1-2-3-1-1-4h3v-5l7-10 7-9 5-4h2l1-3 4-1 2-2 5 1 7 2 4 5 4 10 4 2 3 6 3-1 2 1 1-2h3l1 2 6 1v-2l7-1 12 2 6-1v2h7l4 2 1-2 3 2 1-2 3 2 8 1h16l6-3 4-1 4-2 2-6 3 1 1-3h2v-2l5 1 3-1v2h8l7 2 6 2h10l5-3h3l15-15z" fill="#CECECE"/>
<path transform="translate(953,483)" d="m0 0h12l8 5 6 8 9 21 8 16 7 16 4 3 3 5 13 8 11 9 6 8 1 6-3 3-15 3-6-1-10-6-7-3-3-2-13-3-4 1v2h-6l-3-1-7 2-10-1-2-2-7-1-2-2-7-2-3-3-2-1v-2l-5 1-1-1h-9l-7 6-7 3-10 2-8-1-3-1v-2h-2l-1 2v-2l-3-1 1-7 7-6 25-15 7-12 6-12 13-22 4-7 4-2 2-5 7-3z" fill="#CFCFCF"/>
<path transform="translate(1053,377)" d="m0 0 6 2 1-2v3l5 1h3l5-1-2 4 4-1v-2h2v2l7-1 1-2 9 1h12l2 4h12l-1 4 10-2h3l5 2v2l5 1 6 1v2l8 2 2-1 11 4v2l4 2 7 6 3 2 9 3v2h-6l14 6 3 4-5-2-9-2 1 1 4 3 4 1 2 4 3 2-9-1-16-3 4 2-13-1-15-3-36-4-17-1h-41l-27 2-30 4-14-1 1-5h-2v-2h2l-1-3-4-4v-3h-2v-5l3-1v-5h2v-3h2l-1-3h5l2-1v2l5-4h2l2-5 3 1 3-3 4 1h3l15-2 3-2h4l1-2 4 2 1-2h5z" fill="#777"/>
<path transform="translate(313,1595)" d="m0 0 4 3 1 9 2 9 1 22v7l2 18 1 16 3 25 1 8v12l-1 2 2 1v12l1 6v20h2l1 11 6 18 1 7 2 5 1 7 1 1 1 18 1 8 4 7v18l-1 8 2 3 1 12 5 7 4 20v13l1 9-4 2-6-3-5-6-4-4-1-5-4-2-1-5 2-5v-10l-3-1-2-4h-4v2h-4l-3-12-1-16v-11l4 1 2 3 5-1 2-6h-2l-3-5-4-1h-4l-4-9-3-13 1-7-3-20-2-6v-11l-1-4-1-17-1-3v-21l-2-1v-24l-1-3-2-11-1-19v-4-12l2-4 1-18 2-25 4-17z" fill="#787878"/>
<path transform="translate(920,664)" d="m0 0h8l2 4v4l2 1-1-6 2-2v2h5l4 1 3 4v2l2-1 1-4v3l9 3 1-6 6 1v3l2-2 2-1 8 4 1-5h9l1 3 5-1-3 1-2 8h-2v2h5v2l4-4h2l1 3 4 1v2l6 1 1-5 4-3 6 2v2l5 1 13 7 4 1v2l11 1 7-9h5v2l6-2v2l5 1 1 5 5 2 1 2 4 1h3l2 4v7l1 2-5 1 2 6-2 3-9-1-13-6-7-2-21-1-7-2v-2l-7-1-35-10-8-1h-36l-7-2v-2l-7 1h-14l-16 4-13 4-6 2-2 3h-3v2h-2v2l-10 1-6 1-9-2-6-2-7-1-2-1-8 4h-10l1-4-7-2-1-4 3-10 2-5 11-2 3 2v2l4-4 1-3 8-5 9 1 1 5h6l5-2 2 1v-2l21-6 8-3 5 1v-2l7-1 1-1z" fill="#363636"/>
<path transform="translate(410,1619)" d="m0 0 5 1 2 12-1 31 1 36 1 15 1 3 1 24 2 24 1 7v9l1 7 1 30 2 35v10l-1 10 4 48 2 17 3 36 3 9 1 10 5 5 9 5 1 1 16 3 4 3 2 2v5l-2 2h-13l-7-2-5-2v-2l-8-1-1 9 1 7-3 9-1 11h-13l1-7-1-10-2-7v-15l-3-19v-19l-1-9v-10l-2-7v-11l-2-12 1-10 2-10-2-34-2-11-1-15-1-4-1-19-3-9v-8l1-4v-9l-3-11v-12l-1-13h2l-2-4-3-12-1-5 5-14v-10l-2-4v-12l-3-12v-13h-2v-2h2v-3l7-3 2-4-2-11v-14l2-9z" fill="#787878"/>
<path transform="translate(553,1674)" d="m0 0h5l3 5 5 4 3 8 9 2 14 4v2l4 2 2 3 1 15-4 20-5 15v12l-1 4-1 13-1 6v7l-3 9 2 4-4 5 1 13v16l-2 13-1 2-1 11-4 19-2 10-4 5-5-8-2-11v-8h2l-3-8-2-4-1-12-4-9v-5l3-1 9-2h3v-7h-6l-6-2-1-4 2-4v-5l-3-3v-2h-2l-2-6-1-12 8-13 8-8v-5l-1-3-4-1-4-6-2-2v-7l1-2v-10l-5-14 1-6 3-9-1-14-3-9v-6z" fill="#787878"/>
<path transform="translate(1311,273)" d="m0 0h5l6 6v2l3 1 1 2v9l-1 6-5 1 1 4 3 1-3 3-8 4-3 8-3 6-3 1-2 4-3 4-1 22 1 4 1 25 2 12 2 5-1 2v5l-1 5 4 10-1 5-2 2-1 13 2 3v15l-2 3h-2v20l-4 3-3 17-1 9-9 7-8 14v13l6-2 12-11 8-7 10-10 9-5h7l2 4 3 1 4 8 3 12v29l-3 1-11-2-7-1-1 4-3 1-1 2-3-4-2-8-8 1-14 7-2 6-1 1 1 9 4 11 5 11 1 5-2 3h-2v2l-3 2-9 1-9-3v-15l1-10v-36l-3-18-5-18-6-12-6-5-4-1-4 2-1 5-4 8v2l-8 6-3 5-4 4h-4l-1 2-4 2-1 3h-7-3l2-10 3-13 1 4 7-2 8-4 9-10h2l1-4 2-3 9-1 8 5 9 10 7 23 2-7 7-8 5-5 3-2 2-9 4-12 1-7 3-1-1-12 2-10 2-3v-14l-2-2 1-16h2l-1-11-1-6 1-9-1-5-1-6-1-11-1-21-1-10 1-15 8-10 3-7 2-5 3-2v-5l5-4-5-3-1-3 1-14h2z" fill="#787878"/>
<path transform="translate(901,430)" d="m0 0 5 1 12 6 5 4 3 5v2h-2l1 4v16l-4 17-2 6-1-4 1-5-1 4h-2v7l-3 8-1 8-8 17h-1l1-7 6-15v-4h-2v-3h-2v2l-4-1-1 2-5 2h-4l-1-3v4l-8-1-4 1 1-15-1-3-2 3-7 1 1-2-7-1v5l-6 5h-3l-2-1-1 1-4 1h-4v-2h-3v3h-7l-5-1h-8l-1 2-6-2h-3l-4-1-5 1-4-2-3-1v-2l-9 1v-2l-4 1-1-3-7-3-6-1-5-2h-13l-7-2-2-1h-9l-4 8 1 8 2 6h3l2 3v2l4 2v8l-1 2h2v8l-1 1 4 11-1 3-4-1-8-11-5-15-3-21-1-1v-6h-2v-26l4-5v-7l5 5v2h2v2l5 1 9 9 8 4 12 2v-2l15 3 3 6 4 3 12 5 11 2h19l17-3 6-2h4v-2l11-4 2-3-4-1-12 2-2 1h-17l-8-4h-2v3h-8l-5-1h-15l-1-3 2-3 6-2 9 1 8-1-3-5 19-1 8-2 9-1 5-2 7 3 16 4 4 2v2h2l-3-8-2-5 8 6 3 2v-2l6-1 5-1 2-4 7 1 1-5 3-2h5v-4l-4-6-10-6-7-3z" fill="#787878"/>
<path transform="translate(1040,183)" d="m0 0 4 1v5l2-3 4 1 3-2 3 10h2l1-3 3 3v11l2-5 5-1 1 3 4-4 2 2 1 4 1-2 3 1 2 6 3-3 8 7 4 3v2l4 1 1 3 3 1v4h5l5 5 8 6 5 6h3v5l4 3 9 3 2 1v3 1l5 1 7 4 5 4 1-1 4 2v5l5 2 6 3v3h6l7 5 1 4 5-2 4 4v3h2l4 7 6 13 4 8v6l2 1 2 5-2 3 4 13 1 5 2-3 3 2 2 13 3 2 2 5 4 7 1 6 3-1 1 5v3l4 9 3 7 3 19 2 17h-2l1 5-2 16-1 3 2 5 7 8 6 10-1 3-5-1-11-8-9-7-8-8-3-4-2-25 5 5 7 10 6 5v-2h2l1-9v-18l-3-11-3-9v-6l-2-1v-5l-4-2-3-5-3-7-1-4-7-11-1-4-3-2-5-12-4-7-1-7-5-6-1-3-2-1-3-6v-5l-3-1-3-9h-2l-1-3-2-1v-3h-3v-3l-3-1-3-3-7-3v2l-5 1-2-1-1 3h-1l-2-7-3-2v-2l-4-2-3-2v-2l-3-1-4-1-1-4-3-5v-2h-2l-4-6-3-3-5-10-5-5-1-3-4-2-3-3v-2l-4-1-1-2-4-1v-2l-3 1v-4l-4-2-14-9h-2l-3 2-1-6-1-5-2-1-1 3-2-1h-5l-5 5-2-1-1 4-1 3-4 1-2 3h-2l-1 3-4-1-1 2-3-4 7-1 2-5 1-2h2v-2h-3v-6-1l-3-4-2-7-1 1h-5l2 3-2 2 3 3-23-1-1-7h3v-3l7-3 4 1 4-5h4l-3-1z" fill="#787878"/>
<path transform="translate(767,577)" d="m0 0 21 1 25 4 12 6 4 4 3 1 2 7-2 7-6 2-3 6-1 3-5-1v2l-2 1v2l-3 1h-2l-1 2h-2v2l-6 2-6-1v3h-12v-3l-5 1-10-1-4 1h-2l-3-3-1-6-8-1-4-2-2 1-3-6v-2l-6 1-2-1v-2l-3-1-1-7-3-4 1-4 1-2h3l1-6 6-3 12-3z" fill="#CECECE"/>
<path transform="translate(871,715)" d="m0 0 10 3 10 2 5 2 9 1 7 2v2l14 2 1 1 17 3 8 1h6l6-1h9l9 2 15-3 4 1-1 2 3 1-4 3-2 7-5 2v2l-4 3-6 4-3 1-2 2-5 1-7 2-8 1-6 1v-2h-6v3l-8-1h-8-4l-4 1-4-2-6 1-4-3h-4v-2l-4-1-5-2v-3l-4-2-5-7-3-1v-3h-3v-2h-2v-2l-3-1v-2l-4-2-5-5 1-6 5-1z" fill="#353535"/>
<path transform="translate(1072,387)" d="m0 0v3l-5 6 7-4 3 1 7-3 1 6-3 1 1 4h2l-1-3h3l-1-4 6-4 5-1-7 7 1 3h2l1-3 10-3h3l-1 3h-3v2l6-3v2l4 1-3 2-14 3-5 2v3l4-1-5 4h-4-3l-2 4-4-1-2 2 1 3-13 2-42 4-7 1h-8v-1l8-2v-7l4-2 2-5-1-3 1-1-2-1 1-2 4 1 5-1 7 2 1-8h6l2 2 1-3h2l1 5 2-7 1-2 2 1-1 4 4-1-2 4 5-4h2l2-4z" fill="#363636"/>
<path transform="translate(875,568)" d="m0 0 1 2v5l5 1v2l11 1 12-3 7-2 1-3 4-3h9l4 1h2v2l5 2 7 3 2 1v2h7l2 2 11 1 8-2 7 2v-2l5-2 12 3 6 4 7 3 10 5 10-1 9-3 1-4 1-3 2 9-1 7-4 4h-9l-9 1-9-7v-2l-5-2-6-3-6-1-1 1h-7l-14 6-4 4v-2l-6 1-4-5-3-1v-2h-4v2h-2l-1-4-5-2-8-7h-5v-2l-2 1v2l-9-3-7 1v2l-19 5-6 3-5 1-5-5-8-2v-6l4-6z" fill="#777"/>
<path transform="translate(1083,431)" d="m0 0h24l22 2 28 4 5 2 2 4h6l2 4-4 1v4l-9-1-3-1-7 1-3-1h-8-1-8l-2-1v2h-2v5h-5l-2 1-24-6-1-3-5-1-5-2-1-6-3 1v-2h-4l1-4v2h2v-2l5-1z" fill="#CECECE"/>
<path transform="translate(638,589)" d="m0 0 4 2 5 7 6 3h8l4 5 3 15 2 13 4 19 3 18-1 4-9-1-9-6-5-10-1-7v-16l-1-2v-6l2-4-6-8-2-1v-2h-2l-2-5-2-1-2-10v-6z" fill="#353535"/>
<path transform="translate(1593,1959)" d="m0 0 4 2 2 10 1 6 2 9 1 11 2 14 1 6h-2l2 10 3 14v6l-1 1h-23l-1-4v-8l2-12 2-21 1-1 1-11 2-26z" fill="#777"/>
<path transform="translate(1319,519)" d="m0 0 7 1 3 3 3 6v8l-4 2-1 2-4 3h-3l-1 3h-2l-1 2h-6l-4-3h-3v2l-5 3-5 7-8 6-8 10-3 1-1-10 3-5 11-12 15-16 8-8h2v-2z" fill="#353535"/>
<path transform="translate(1053,488)" d="m0 0h8l7 2 1-2 11 2 1 2 7 1v2h7l5 1 4 2h7l4-1 3 4 12 2 4-1 12 2v5l-15 4-11-1-16-1-1-1-15-3-15-4-12-6v-3l-8-4z" fill="#353535"/>
<path transform="translate(801,386)" d="m0 0 5 1-1 5 7-1h8l4 1 11 2 4 2h2v3l4 1v2h5v2l5 1 1 2-7 1-27-2-46-1v-2l4-1-1-9 7-1 1-2 5 1 3-4z" fill="#787878"/>
<path transform="translate(1082,430)" d="m0 0h14v1h-13v2l-5 1v2h-2l-1 2h4l1 1h3v6l10 3 1 2 24 6 1 2h-7l-17-3h-21l-4-2 3-1-3-2-4-1-7 2-10-1-1 2-2-6-5-5-1-2h3v-2l4-1 1-2 6-2z" fill="#787878"/>
<path transform="translate(1311,273)" d="m0 0h5l6 6v2l3 1 1 2v9l-1 6-5 1 1 4 3 1-3 3-8 4-3 8-3 6-3 1-2 4-3 4-1 22 1 4 1 25 2 12 2 5-1 2v5l-1 5 4 10-1 5-2 2-1 13 2 3v15l-2 3h-2v20l-4 3-2 4v-7l3-1-1-12 2-10 2-3v-14l-2-2 1-16h2l-1-11-1-6 1-9-1-5-1-6-1-11-1-21-1-10 1-15 8-10 3-7 2-5 3-2v-5l5-4-5-3-1-3 1-14h2z" fill="#787878"/>
<path transform="translate(1040,183)" d="m0 0 4 1v5l2-3 4 1 3-2 3 10h2l1-3 3 3v10l-3 16-4 1-2 3h-2l-1 3-4-1-1 2-3-4 7-1 2-5 1-2h2v-2h-3v-6-1l-3-4-2-7-1 1h-5l2 3-2 2 3 3-23-1-1-7h3v-3l7-3 4 1 4-5h4l-3-1z" fill="#757575"/>
<path transform="translate(798,416)" d="m0 0 29 1 21 2 14 3 3 2h2v2l6 2v1l-8 1h-14l-4-1h-26l-9-2-2-4h-9l-4-1-1 1h-8l-6-3h-3v-2l3-1z" fill="#787878"/>
<path transform="translate(389,1494)" d="m0 0 6 3v2h2v2l7 2 4 6 2 8 6 25v8l-3 9h-4l-3-9-3-16-2-8-4-12-6-10-2-7z" fill="#787878"/>
<path transform="translate(1592,1991)" d="m0 0h2l-1 4h2l1 5h-2l2 5 1 11 1 2 3 24v6h-16l-1-4v-8l2-12 2-21 1-1 1-7z" fill="#353535"/>
<path transform="translate(1205,99)" d="m0 0 10 2 14 5 1 3 4 1 6 9 11 8 1 2 4 2 2 7 3 3 4 9 2 7-2 7 6 8-5-1-6-5v-2l-3-2-1-4h2l-3-6 2-6 1-4-6-9v-2l-4-2-9-7-3-1v2l-2 1h-9l-2-9-2-1-2-9-15-4z" fill="#787878"/>
<path transform="translate(1233,453)" d="m0 0 2 2 1 6 5 2 7 7 7 6 9 11 6 10-1 3-5-1-11-8-9-7-8-8-3-4z" fill="#CFCFCF"/>
<path transform="translate(1263,647)" d="m0 0h1l-1 17-2 7-1 9-1 2v8l3 9 4 3 4 1v2l6 1v2l4 1-2 4h-11l-18-8v-9l1-7h2v-5l3-4 2-8 1-6 1-1 1-7 2-7z" fill="#787878"/>
<path transform="translate(917,25)" d="m0 0 10 2h9l1 2-6 1h-49l-1 4-7 1-1 1 11-2 3 3-2 2-7 2-5 1-2-1-1-3-6 4h-2v2l-6 2h-4l1 6-7 1-1 3-4 2h-3l-1 3-10 4h-3l-1 7h-3v-4l-6-1-11-1v-1h12l1-2 9 1 1-2 3-1 1-2h3v-3l5-3 4 1-1-5 9-2 3-3 9-4 11-7 5-3 3-2 21-1 12 1z" fill="#787878"/>
<path transform="translate(1108,414)" d="m0 0h6l5 2 3 1h7l9 3 7 1v2l-13-1h-2l36 6v1l-12-1-36-4-17-1h-41l-27 2h-9v-1l27-3 12-1 37-1-2-3 5-1h2z" fill="#CFCFCF"/>
<path transform="translate(955,479)" d="m0 0h8l10 5 3 3v3h2l5 10 8 20 12 25 3 5 1 2-4-2-13-26-11-25-4-7-4-5-6-3h-12l-6 3h-3l-2 5-5 5-13 23-7 12-5 10-5 7-4 1 4-5 6-11 9-17 9-18h2l2-5 5-5 8-7z" fill="#787878"/>
<path transform="translate(207 2e3)" d="m0 0 1 2 6 2 5 5v2h2v2h2l1 7-2 2-11 2-8-2v-2h-2l-1-12h2l-1-4 2-2h4z" fill="#787878"/>
<path transform="translate(1179,573)" d="m0 0h2v2h2l2 4v8l-2 5-3 3h-17v-2l-2 1h-37v-2l14-1 34-1 5-3v-2l-21-3 3-2 18-4v-2z" fill="#7C7C7C"/>
<path transform="translate(811,725)" d="m0 0h6l2 2-4 2h3l4 4 5 3 1 5 4 1 2 4h3l2 4 1 5-5 2-6-2v-2l-3 1-2-7-3-1-6-9v-3l-5-1-2-6h2z" fill="#CFCFCF"/>
<path transform="translate(1275,174)" d="m0 0 4 2 7 6 8 11 3 3 2 7 3 5v5l4 4 3 5 2 5 2 2 1 11 3 6 5 5-2 1-5-5-4-6-1-4 1-6h-3v-2h-2l-1 3-2-4-3-2-2-9h2l-3-7v-4l-3 1-4-4v-2h5l-2-6-4-5-3-3-7-2v-4-2z" fill="#787878"/>
<path transform="translate(697,419)" d="m0 0h1v24l-6 8-3 3-8 1-2-3 1-6 6-9 7-8 2 1z" fill="#CFCFCF"/>
<path transform="translate(842,463)" d="m0 0h15l4 2 5-1 9 1 8 3 1 8-3 1v-3l-18-4h-19l-2-2-4-1 1-3z" fill="#ccc"/>
<path transform="translate(996,477)" d="m0 0 2 2 5 13 12 39-1 4-7-15v-2h-2l-4-11-5-20z" fill="#565656"/>
<path transform="translate(1275,583)" d="m0 0 2 3 4 9 2 14-2 4-6 1-3-3v-13l1-12z" fill="#353535"/>
<path transform="translate(762,71)" d="m0 0 4 1-11 4-1 3h-3l-2 4-8 4-6 5 1 6-4 6h-2l-2 5-2 2-2 10-3 5h-2l-4 17-2 4-1-2 4-18 6-7 1-9 5-8 2-2-1-4 4-7 3-3 3-1 2-3 5-2-1-3 3-2 3 1 1-4z" fill="#787878"/>
<path transform="translate(1311,273)" d="m0 0h5l7 8 2 4v7l-2 6-9-1-1-2v-13l2-1z" fill="#CDCDCD"/>
<path transform="translate(548,1988)" d="m0 0 9 2 1 8-2 14-2 5-1-2-4-1-1-14h-1l-1-10h2z" fill="#787878"/>
<path transform="translate(695,189)" d="m0 0 1 2-3 11-5 23v15l-3 15-1 7 2 22-2 21-3 9-2 1 3-13 1-10v-13l-1-2-1-17 4-18 1-23 3-10 2-14z" fill="#787878"/>
<path transform="translate(1255,136)" d="m0 0h2l4 5 4 9 2 7-2 7 6 8-5-1-6-5v-2l-3-2-1-4h2l-3-6 2-6 1-4-3-4z" fill="#787878"/>
<path transform="translate(1300,648)" d="m0 0h2l-1 5-7 6-13 5-3 2h-5l-1-2 5-8 9-3 8-2z" fill="#787878"/>
<path transform="translate(870,567)" d="m0 0 3 1-5 5-7 4-9 1-7-3-11-3v-1l30-3z" fill="#787878"/>
<path transform="translate(565,1913)" d="m0 0h4l1 5-1 11-1 3h-2v5l-5-1-1-3v-7l-4-4v-2h2l1-3h3v-2z" fill="#787878"/>
<path transform="translate(1023,22)" d="m0 0h12l6 3 3 3 14 4v2l5 1 7 4h12l2 4 6 4v3l-8-6-1-4-3 3h-8l-2-2-5-2-2-4h-7l-12-5-3-3v-2h-8l-5-1-4 1h-12l-10-1v-1h19z" fill="#787878"/>
<path transform="translate(1047,478)" d="m0 0h15l14 1 6 2h10l1 4-3 1-7-1-1-2-1 2-7-2-1 3-4-2h-6l-1-2h-3l-2-1-1 2-6-2-2 2-3-2z" fill="#CFCFCF"/>
<path transform="translate(835,716)" d="m0 0 5 1 4 4 3 6 2 1v2h3l-2 6-1-2-4-1-6-4-1-2h-2l-3-9h2z" fill="#CFCFCF"/>
<path transform="translate(1255,476)" d="m0 0 7 6 9 11 4 10v4l-4-1-19-14-5-5 4 2 15 10h3l-2-6-8-11-4-4z" fill="#787878"/>
<path transform="translate(1182,81)" d="m0 0 4 1 5 10v7l5 2h8l-2 3-7-1-6-3-1-5-1-4-1 3-4-1-1-5h-2l-1-4h-8l4-2h7z" fill="#787878"/>
<path transform="translate(705,451)" d="m0 0 2 1 2 19v9l-2-4-1-5h-3l-3-5 1-9 3-5z" fill="#787878"/>
<path transform="translate(749,420)" d="m0 0 2 1-12 6-3 2v3l1 4-1 2-7 1-3-1 1-4 7-8 8-4z" fill="#787878"/>
<path transform="translate(1239,941)" d="m0 0v3l-9 10-16 12h-2v2l-9 5h-2v-2l9-6 5-2v-2l12-9h2l1-3 8-7z" fill="#353535"/>
<path transform="translate(568,1841)" d="m0 0 5 1 2 1v7l-2 2-5 1-4-5 1-5z" fill="#CFCFCF"/>
<path transform="translate(701,155)" d="m0 0 2 1-1 9-2 12-3 12h-1v-10l2-6v-9h-2l-1-4 3-4z" fill="#787878"/>
<path transform="translate(1127,69)" d="m0 0h11l11 6 13 8 8 1v1l-9 1-8-6-8-3-2-3-16-4z" fill="#787878"/>
<path transform="translate(573,1795)" d="m0 0 4 1 2 2v7l-3 3-5-2v-8z" fill="#CFCFCF"/>
<path transform="translate(566,1781)" d="m0 0h5l3 5-1 4-4 1-5-2-1-4 1-2h2z" fill="#CFCFCF"/>
<path transform="translate(1034,557)" d="m0 0 9 3 3 3 4 1v3l3 1-7-1-12-6-2-3z" fill="#787878"/>
<path transform="translate(1326,256)" d="m0 0 6 5-2 1 3 13v13h-1l-1-11-3-6v-9h-2l-1-4z" fill="#787878"/>
<path transform="translate(1218,472)" d="m0 0 6 3 1 4-2 3-8-1 1-6z" fill="#787878"/>
<path transform="translate(793,63)" d="m0 0h6v1h-5l-1 3-8 2h-13l-5 2 4-4 16-2z" fill="#787878"/>
<path transform="translate(910,504)" d="m0 0h3l-3 10-6 12h-1l1-7z" fill="#717171"/>
<path transform="translate(1210,112)" d="m0 0 4 2v2l3 1v5l-1-2h-3l-2 3h-4l1-4 1-2h2z" fill="#767676"/>
<path transform="translate(1225,109)" d="m0 0 5 2 3 4v6h-3v-2l-3-1-1-3-2-2z" fill="#CFCFCF"/>
<path transform="translate(809,878)" d="m0 0 8 2v2h2l2 5-1 2-3-1-2-5h-4v-2h-2z" fill="#787878"/>
<path transform="translate(1587,2015)" d="m0 0h1l1 7-2 12v14l-3-1v-11l2-12z" fill="#787878"/>
<path transform="translate(960,25)" d="m0 0 4 1 2 1 14 1v1l-18 1-1-2h-8l1-2z" fill="#787878"/>
<path transform="translate(1016,212)" d="m0 0h9v3l4 1 2 5-5-3v-2h-9z" fill="#505050"/>
<path transform="translate(1210,448)" d="m0 0 4 1 3 2v2l-7 1-4-2 1-3z" fill="#CFCFCF"/>
<path transform="translate(1099,57)" d="m0 0 7 1 10 7 2 2-8-1 1-3-7-2-5-3z" fill="#787878"/>
<path transform="translate(992,21)" d="m0 0 8 1-3 1-1 4-6 3h-9v-1l10-2 3-2z" fill="#787878"/>
<path transform="translate(1312,269)" d="m0 0 5 3 4 4-1 2-4-4h-4l2 5-4-4 1-5z" fill="#787878"/>
<path transform="translate(1231,447)" d="m0 0 5 5 1 5-1-2h-2l-1 7h-1z" fill="#6D6D6D"/>
<path transform="translate(1092,48)" d="m0 0h2l5 9-4 1-2-2v-6l-2-1z" fill="#787878"/>
<path transform="translate(1590 2e3)" d="m0 0h1v9l-1 10-2 1v-12l1-1z" fill="#787878"/>
<path transform="translate(709,426)" d="m0 0 7 1v3l-6 1v-2l-4-1z" fill="#7D7D7D"/>
<path transform="translate(1041,576)" d="m0 0 5 1 3 2v4l-4-1-4-4z" fill="#787878"/>
<path transform="translate(1025,205)" d="m0 0 6 2-3 3h-6l-1-4z" fill="#787878"/>
<path transform="translate(556,1944)" d="m0 0 1 2 4 2v3h-5l-1-5z" fill="#787878"/>
<path transform="translate(1224,674)" d="m0 0 4 1-3 9-2 3v-8h2z" fill="#CFCFCF"/>
</svg>
